<svg width="73" height="73" viewBox="0 0 73 73" fill="none" xmlns="http://www.w3.org/2000/svg">
<circle cx="36.5" cy="36.5" r="36.5" fill="white"/>
<path d="M33.1542 6.3875C19.1625 7.90833 7.90833 19.1625 6.3875 32.85C4.86666 47.1458 13.0792 59.9208 25.55 64.7875C26.4625 65.0917 27.375 64.4833 27.375 63.2667V58.4C27.375 58.4 26.1583 58.7042 24.6375 58.7042C20.3792 58.7042 18.5542 55.0542 18.25 52.925C17.9458 51.7083 17.3375 50.7958 16.425 49.8833C15.5125 49.5792 15.2083 49.5792 15.2083 49.275C15.2083 48.6667 16.1208 48.6667 16.425 48.6667C18.25 48.6667 19.7708 50.7958 20.3792 51.7083C21.9 54.1417 23.725 54.75 24.6375 54.75C25.8542 54.75 26.7667 54.4458 27.375 54.1417C27.6792 52.0125 28.5917 49.8833 30.4167 48.6667C23.4208 47.1458 18.25 43.1917 18.25 36.5C18.25 33.1542 19.7708 29.8083 21.9 27.375C21.5958 26.7667 21.2917 25.2458 21.2917 23.1167C21.2917 21.9 21.2917 20.075 22.2042 18.25C22.2042 18.25 26.4625 18.25 30.7208 22.2042C32.2417 21.5958 34.3708 21.2917 36.5 21.2917C38.6292 21.2917 40.7583 21.5958 42.5833 22.2042C46.5375 18.25 51.1 18.25 51.1 18.25C51.7083 20.075 51.7083 21.9 51.7083 23.1167C51.7083 25.55 51.4042 26.7667 51.1 27.375C53.2292 29.8083 54.75 32.85 54.75 36.5C54.75 43.1917 49.5792 47.1458 42.5833 48.6667C44.4083 50.1875 45.625 52.925 45.625 55.6625V63.5708C45.625 64.4833 46.5375 65.3958 47.7542 65.0917C59.0083 60.5292 66.9167 49.5792 66.9167 36.8042C66.9167 18.5542 51.4042 4.25833 33.1542 6.3875Z" fill="black"/>
</svg>
