<svg width="73" height="73" viewBox="0 0 73 73" fill="none" xmlns="http://www.w3.org/2000/svg">
<path d="M36.5 6.08334C28.433 6.08334 20.6964 9.28794 14.9921 14.9922C9.28792 20.6964 6.08331 28.433 6.08331 36.5C6.08331 44.567 9.28792 52.3036 14.9921 58.0078C20.6964 63.7121 28.433 66.9167 36.5 66.9167C44.567 66.9167 52.3036 63.7121 58.0078 58.0078C63.712 52.3036 66.9166 44.567 66.9166 36.5C66.9166 28.433 63.712 20.6964 58.0078 14.9922C52.3036 9.28794 44.567 6.08334 36.5 6.08334Z" fill="#0288D1"/>
<path d="M21.2917 28.8958H27.375V51.7083H21.2917V28.8958ZM24.3151 25.8542H24.2816C22.4658 25.8542 21.2917 24.5006 21.2917 22.811C21.2917 21.0848 22.5023 19.7708 24.3501 19.7708C26.2009 19.7708 27.34 21.0848 27.375 22.811C27.375 24.5006 26.2009 25.8542 24.3151 25.8542ZM53.2292 37.2604C53.2292 32.6401 49.4849 28.8958 44.8646 28.8958C42.0328 28.8958 39.5341 30.3072 38.0209 32.4607V28.8958H31.9375V51.7083H38.0209V39.5417C38.0209 37.0216 40.0633 34.9792 42.5834 34.9792C45.1034 34.9792 47.1459 37.0216 47.1459 39.5417V51.7083H53.2292C53.2292 51.7083 53.2292 37.9007 53.2292 37.2604Z" fill="white"/>
</svg>
